<svg xmlns="http://www.w3.org/2000/svg" width="115" height="90" viewBox="0 0 115 90" fill="none">
<path d="M76.4309 6.8415C75.0827 6.8405 73.7527 7.15224 72.5455 7.75218C71.3383 8.35212 70.2869 9.22389 69.474 10.2989C68.6015 9.92362 67.6495 9.77078 66.7033 9.85408C65.7571 9.93738 64.8464 10.2542 64.0529 10.7761C63.2595 11.298 62.6082 12.0087 62.1574 12.8443C61.7067 13.6799 61.4706 14.6144 61.4703 15.5637H85.1579C85.1579 14.4183 84.9322 13.2841 84.4936 12.2259C84.055 11.1676 83.4122 10.2061 82.6018 9.39617C81.7915 8.58624 80.8294 7.94376 79.7706 7.50543C78.7118 7.0671 77.577 6.8415 76.4309 6.8415Z" fill="#E6E6E6"/>
<path d="M109.153 0.805542H5.48155C4.09515 0.807504 2.76609 1.35882 1.78575 2.33861C0.80541 3.31841 0.253794 4.64674 0.251831 6.03238V83.8201C0.253793 85.2057 0.80541 86.5341 1.78575 87.5139C2.76609 88.4937 4.09515 89.045 5.48155 89.0469H109.153C110.54 89.045 111.869 88.4937 112.849 87.5139C113.829 86.5341 114.381 85.2057 114.383 83.8201V6.03238C114.381 4.64674 113.829 3.31841 112.849 2.33861C111.869 1.35882 110.54 0.807504 109.153 0.805542ZM113.768 83.8201C113.766 85.0428 113.279 86.215 112.414 87.0796C111.549 87.9442 110.377 88.4305 109.153 88.432H5.48155C4.25818 88.4305 3.08533 87.9442 2.22027 87.0796C1.35522 86.215 0.868577 85.0428 0.867089 83.8201V6.03238C0.868577 4.80968 1.35522 3.63749 2.22027 2.77291C3.08533 1.90833 4.25818 1.42195 5.48155 1.42046H109.153C110.377 1.42195 111.549 1.90833 112.414 2.77291C113.279 3.63749 113.766 4.80968 113.768 6.03238V83.8201Z" fill="#BDBDBD"/>
<path d="M80.3897 56.7625C93.2171 56.7625 103.616 46.3695 103.616 33.5492C103.616 20.7288 93.2171 10.3358 80.3897 10.3358C67.5623 10.3358 57.1636 20.7288 57.1636 33.5492C57.1636 46.3695 67.5623 56.7625 80.3897 56.7625Z" fill="#95BDF4"/>
<path d="M113.841 65.8498C114.194 66.3539 114.383 66.9543 114.383 67.5696V70.0595C114.383 71.7163 113.04 73.0595 111.383 73.0595H3.25183C1.59498 73.0595 0.251831 71.7163 0.251831 70.0595V67.5335C0.251831 66.9215 0.438985 66.3242 0.788183 65.8216L0.867098 65.708L37.0507 13.6333C37.2148 13.397 37.4337 13.204 37.6887 13.0707C37.9437 12.9374 38.2272 12.8677 38.515 12.8677C38.8028 12.8677 39.0863 12.9374 39.3413 13.0707C39.5963 13.204 39.8152 13.397 39.9793 13.6333L61.7924 45.0222C62.9829 46.7352 65.515 46.7404 66.7125 45.0322L81.5187 23.9118C81.683 23.6768 81.9016 23.4849 82.156 23.3524C82.4104 23.22 82.693 23.1508 82.9799 23.1508C83.2668 23.1508 83.5494 23.22 83.8037 23.3524C84.0581 23.4849 84.2768 23.6768 84.4411 23.9118L113.768 65.7449L113.841 65.8498Z" fill="#828282"/>
<path d="M25.3225 80.4393H7.17313C7.0917 80.439 7.01371 80.4065 6.95622 80.3489C6.89873 80.2912 6.86646 80.2131 6.86646 80.1317C6.86646 80.0503 6.89873 79.9721 6.95622 79.9145C7.01371 79.8568 7.0917 79.8243 7.17313 79.8241H25.3225C25.4041 79.8241 25.4824 79.8565 25.5401 79.9141C25.5977 79.9718 25.6302 80.0501 25.6302 80.1317C25.6302 80.2133 25.5977 80.2915 25.5401 80.3492C25.4824 80.4069 25.4041 80.4393 25.3225 80.4393Z" fill="#828282"/>
<path d="M52.702 80.4393H34.5526C34.5121 80.4394 34.472 80.4316 34.4346 80.4161C34.3971 80.4007 34.3631 80.3781 34.3345 80.3495C34.3058 80.3209 34.283 80.287 34.2675 80.2496C34.252 80.2122 34.244 80.1722 34.244 80.1317C34.244 80.0912 34.252 80.0511 34.2675 80.0137C34.283 79.9763 34.3058 79.9424 34.3345 79.9138C34.3631 79.8852 34.3971 79.8626 34.4346 79.8472C34.472 79.8318 34.5121 79.8239 34.5526 79.8241H52.702C52.7836 79.8241 52.8618 79.8565 52.9195 79.9142C52.9772 79.9718 53.0096 80.0501 53.0096 80.1317C53.0096 80.2133 52.9772 80.2915 52.9195 80.3492C52.8618 80.4069 52.7836 80.4393 52.702 80.4393Z" fill="#828282"/>
<path d="M80.0812 80.4393H61.9318C61.8504 80.439 61.7724 80.4065 61.7149 80.3489C61.6574 80.2912 61.6251 80.2131 61.6251 80.1317C61.6251 80.0503 61.6574 79.9721 61.7149 79.9145C61.7724 79.8568 61.8504 79.8243 61.9318 79.8241H80.0812C80.1628 79.8241 80.2411 79.8565 80.2987 79.9141C80.3564 79.9718 80.3888 80.0501 80.3888 80.1317C80.3888 80.2133 80.3564 80.2915 80.2987 80.3492C80.2411 80.4069 80.1628 80.4393 80.0812 80.4393Z" fill="#828282"/>
<path d="M107.46 80.4393H89.3108C89.2294 80.439 89.1514 80.4065 89.0939 80.3489C89.0364 80.2912 89.0042 80.2131 89.0042 80.1317C89.0042 80.0503 89.0364 79.9721 89.0939 79.9145C89.1514 79.8568 89.2294 79.8243 89.3108 79.8241H107.46C107.542 79.8241 107.62 79.8565 107.678 79.9141C107.735 79.9718 107.768 80.0501 107.768 80.1317C107.768 80.2133 107.735 80.2915 107.678 80.3492C107.62 80.4069 107.542 80.4393 107.46 80.4393Z" fill="#828282"/>
<path d="M100.362 57.7434C106.59 52.1101 108.803 44.4113 105.305 40.5477C101.806 36.6842 93.9212 38.1189 87.6932 43.7523C81.4652 49.3856 79.2525 57.0844 82.751 60.948C86.2495 64.8115 94.1344 63.3768 100.362 57.7434Z" fill="#E6E6E6"/>
<path d="M82.2419 73.1649C81.402 71.4308 81.1046 69.4769 81.2509 67.5639C81.4095 65.663 81.9706 63.8175 82.8969 62.1498C83.7815 60.5332 84.9506 59.0862 86.2796 57.8138C87.6901 56.4633 89.2806 55.3169 90.9541 54.3149C92.7212 53.2569 94.578 52.3577 96.4564 51.5164C96.6905 51.4116 96.925 51.3076 97.1598 51.2043C97.3139 51.1365 97.1806 50.9106 97.0274 50.978C95.1123 51.8209 93.2132 52.7091 91.3972 53.7513C89.6623 54.7469 88.0025 55.8859 86.5196 57.2319C85.1363 58.4875 83.9035 59.9238 82.9475 61.532C81.9536 63.1809 81.309 65.0162 81.0539 66.9242C80.809 68.8458 80.9983 70.8441 81.7271 72.647C81.816 72.8669 81.9121 73.0836 82.0155 73.2971C82.089 73.4489 82.3152 73.3162 82.2419 73.1649V73.1649Z" fill="#CCCCCC"/>
<path d="M89.4754 54.9828C89.3888 53.5538 89.4964 52.1196 89.7953 50.7195C90.0933 49.3186 90.577 47.9638 91.2336 46.6908C91.6032 45.9761 92.0268 45.2907 92.5007 44.6405C92.6002 44.504 92.3728 44.373 92.2743 44.5082C91.4229 45.6803 90.7337 46.9621 90.2255 48.3186C89.7161 49.6752 89.3892 51.0935 89.2535 52.5362C89.1769 53.3495 89.1635 54.1675 89.2132 54.9828C89.2234 55.1504 89.4857 55.1516 89.4754 54.9828V54.9828Z" fill="#CCCCCC"/>
<path d="M15.626 68.1108C13.6528 66.326 12.9518 63.8868 14.0602 62.6627C15.1686 61.4387 17.6668 61.8932 19.64 63.678C21.6132 65.4628 22.3142 67.902 21.2058 69.1261C20.0974 70.3502 17.5992 69.8956 15.626 68.1108Z" fill="#E6E6E6"/>
<path d="M21.3661 72.9962C21.6322 72.4468 21.7265 71.8278 21.6801 71.2217C21.6299 70.6194 21.4521 70.0347 21.1586 69.5063C20.8784 68.9942 20.5079 68.5357 20.0869 68.1326C19.64 67.7047 19.1361 67.3415 18.6059 67.024C18.046 66.6888 17.4577 66.404 16.8626 66.1374C16.7884 66.1042 16.7142 66.0712 16.6398 66.0385C16.5909 66.0171 16.6332 65.9455 16.6817 65.9668C17.2885 66.2339 17.8901 66.5153 18.4655 66.8455C19.0152 67.1609 19.541 67.5218 20.0109 67.9482C20.4491 68.346 20.8397 68.8011 21.1426 69.3106C21.4575 69.833 21.6617 70.4145 21.7426 71.019C21.8201 71.6278 21.7602 72.2609 21.5292 72.8322C21.5011 72.9018 21.4706 72.9705 21.4379 73.0381C21.4146 73.0862 21.3429 73.0441 21.3661 72.9962V72.9962Z" fill="#CCCCCC"/>
<path d="M19.0745 67.2361C19.1019 66.7834 19.0679 66.329 18.9731 65.8854C18.8787 65.4416 18.7255 65.0123 18.5174 64.609C18.4003 64.3826 18.2661 64.1654 18.116 63.9594C18.0845 63.9162 18.1565 63.8747 18.1877 63.9175C18.4575 64.2889 18.6758 64.695 18.8369 65.1247C18.9982 65.5546 19.1018 66.0039 19.1448 66.461C19.1691 66.7187 19.1733 66.9778 19.1576 67.2362C19.1543 67.2892 19.0712 67.2896 19.0745 67.2362V67.2361Z" fill="#CCCCCC"/>
<path d="M20.4962 63.1484C16.5708 59.5978 15.1761 54.7454 17.3812 52.3103C19.5863 49.8752 24.556 50.7794 28.4814 54.3301C32.4068 57.8807 33.8014 62.7331 31.5964 65.1682C29.3913 67.6033 24.4216 66.6991 20.4962 63.1484Z" fill="#E6E6E6"/>
<path d="M31.9172 72.8651C32.4465 71.7721 32.634 70.5406 32.5418 69.3349C32.4418 68.1368 32.0882 66.9736 31.5043 65.9225C30.9468 64.9036 30.2099 63.9915 29.3723 63.1895C28.4833 62.3384 27.4808 61.6158 26.426 60.9842C25.3123 60.3174 24.1419 59.7507 22.958 59.2204C22.8105 59.1543 22.6627 59.0888 22.5147 59.0237C22.4175 58.981 22.5016 58.8386 22.5981 58.8811C23.8052 59.4123 25.0021 59.9721 26.1467 60.629C27.2402 61.2566 28.2864 61.9744 29.221 62.8228C30.0929 63.6142 30.8699 64.5194 31.4724 65.5331C32.0989 66.5723 32.5052 67.7291 32.666 68.9317C32.8203 70.1428 32.701 71.4023 32.2416 72.5387C32.1856 72.6773 32.125 72.8138 32.0599 72.9484C32.0136 73.0441 31.871 72.9604 31.9172 72.8651V72.8651Z" fill="#CCCCCC"/>
<path d="M27.3581 61.4077C27.4127 60.507 27.3449 59.6031 27.1565 58.7206C26.9687 57.8376 26.6638 56.9837 26.2499 56.1813C26.017 55.7309 25.75 55.2989 25.4513 54.8891C25.3886 54.803 25.5319 54.7205 25.594 54.8057C26.1307 55.5445 26.565 56.3523 26.8854 57.2073C27.2064 58.0624 27.4124 58.9563 27.498 59.8656C27.5462 60.3782 27.5547 60.8938 27.5234 61.4077C27.5169 61.5133 27.3516 61.514 27.3581 61.4077V61.4077Z" fill="#CCCCCC"/>
<path d="M39.3859 65.6355C42.4662 62.8492 43.5606 59.0413 41.8303 57.1303C40.1 55.2194 36.2002 55.929 33.1199 58.7153C30.0396 61.5017 28.9452 65.3096 30.6755 67.2205C32.4058 69.1315 36.3056 68.4218 39.3859 65.6355Z" fill="#E6E6E6"/>
<path d="M30.4237 73.2624C30.0083 72.4047 29.8612 71.4384 29.9336 70.4922C30.012 69.552 30.2895 68.6392 30.7477 67.8144C31.1852 67.0148 31.7635 66.2991 32.4208 65.6698C33.1184 65.0018 33.9051 64.4348 34.7328 63.9392C35.6068 63.4159 36.5252 62.9712 37.4542 62.5551C37.57 62.5032 37.686 62.4518 37.8021 62.4007C37.8783 62.3672 37.8124 62.2555 37.7367 62.2888C36.7894 62.7057 35.8502 63.145 34.952 63.6605C34.0939 64.1529 33.2729 64.7162 32.5395 65.382C31.8553 66.003 31.2455 66.7134 30.7727 67.5088C30.2811 68.3243 29.9623 69.2321 29.8361 70.1758C29.715 71.1262 29.8087 72.1145 30.1691 73.0063C30.2131 73.115 30.2606 73.2222 30.3117 73.3278C30.3481 73.4029 30.46 73.3372 30.4237 73.2624V73.2624Z" fill="#CCCCCC"/>
<path d="M34.0013 64.2725C33.9584 63.5657 34.0116 62.8563 34.1595 62.1638C34.3069 61.471 34.5461 60.8008 34.8709 60.1712C35.0537 59.8178 35.2632 59.4788 35.4976 59.1571C35.5468 59.0896 35.4343 59.0249 35.3856 59.0917C34.9645 59.6715 34.6236 60.3054 34.3722 60.9763C34.1203 61.6473 33.9586 62.3488 33.8915 63.0624C33.8536 63.4646 33.847 63.8692 33.8716 64.2725C33.8766 64.3553 34.0064 64.3559 34.0013 64.2725V64.2725Z" fill="#CCCCCC"/>
<path d="M57.7788 21.4064C56.1154 21.4052 54.4745 21.7898 52.9851 22.5299C51.4957 23.2701 50.1985 24.3457 49.1956 25.672C48.1192 25.209 46.9445 25.0204 45.7771 25.1232C44.6098 25.226 43.4862 25.6169 42.5073 26.2608C41.5284 26.9047 40.7248 27.7815 40.1686 28.8125C39.6125 29.8434 39.3212 30.9963 39.3209 32.1675H68.5459C68.5459 30.7544 68.2674 29.355 67.7263 28.0494C67.1852 26.7438 66.3921 25.5575 65.3923 24.5583C64.3924 23.559 63.2055 22.7663 61.8992 22.2255C60.5928 21.6847 59.1927 21.4064 57.7788 21.4064Z" fill="#CCCCCC"/>
<path d="M23.9156 10.1836C22.2523 10.1823 20.6113 10.5669 19.1219 11.3071C17.6325 12.0473 16.3353 13.1229 15.3325 14.4492C14.256 13.9862 13.0814 13.7976 11.914 13.9004C10.7466 14.0031 9.62302 14.394 8.64411 15.038C7.66521 15.6819 6.86161 16.5587 6.30547 17.5896C5.74933 18.6206 5.45804 19.7735 5.45776 20.9447H34.6827C34.6827 19.5315 34.4042 18.1322 33.8631 16.8266C33.322 15.521 32.5289 14.3347 31.5291 13.3354C30.5293 12.3362 29.3423 11.5435 28.036 11.0027C26.7297 10.4619 25.3296 10.1836 23.9156 10.1836Z" fill="#CCCCCC"/>
</svg>